<mxfile host="Electron" agent="Mozilla/5.0 (Windows NT 10.0; Win64; x64) AppleWebKit/537.36 (KHTML, like Gecko) draw.io/28.2.5 Chrome/138.0.7204.251 Electron/37.6.1 Safari/537.36" version="28.2.5">
  <diagram name="Leht-1" id="5OV3S7CerOZycXR0E9lL">
    <mxGraphModel dx="1332" dy="902" grid="1" gridSize="10" guides="1" tooltips="1" connect="1" arrows="1" fold="1" page="1" pageScale="1" pageWidth="1100" pageHeight="1700" math="0" shadow="0">
      <root>
        <mxCell id="0" />
        <mxCell id="1" parent="0" />
        <mxCell id="fNvGgida7WoPPl0siBiy-3" value="" style="edgeStyle=orthogonalEdgeStyle;rounded=0;orthogonalLoop=1;jettySize=auto;html=1;" edge="1" parent="1" source="fNvGgida7WoPPl0siBiy-1" target="fNvGgida7WoPPl0siBiy-2">
          <mxGeometry relative="1" as="geometry" />
        </mxCell>
        <mxCell id="fNvGgida7WoPPl0siBiy-1" value="Algus" style="ellipse;whiteSpace=wrap;html=1;" vertex="1" parent="1">
          <mxGeometry x="490" y="220" width="120" height="80" as="geometry" />
        </mxCell>
        <mxCell id="fNvGgida7WoPPl0siBiy-8" value="" style="edgeStyle=orthogonalEdgeStyle;rounded=0;orthogonalLoop=1;jettySize=auto;html=1;" edge="1" parent="1" source="fNvGgida7WoPPl0siBiy-2" target="fNvGgida7WoPPl0siBiy-4">
          <mxGeometry relative="1" as="geometry" />
        </mxCell>
        <mxCell id="fNvGgida7WoPPl0siBiy-2" value="Kuvame kasutajale tekst&amp;nbsp;&lt;div&gt;&quot;Tere tulemast MobiFix parandusautomaati! Kuidas saame aidata?&quot;&lt;/div&gt;" style="shape=parallelogram;perimeter=parallelogramPerimeter;whiteSpace=wrap;html=1;fixedSize=1;" vertex="1" parent="1">
          <mxGeometry x="440" y="390" width="220" height="60" as="geometry" />
        </mxCell>
        <mxCell id="fNvGgida7WoPPl0siBiy-9" value="" style="edgeStyle=orthogonalEdgeStyle;rounded=0;orthogonalLoop=1;jettySize=auto;html=1;" edge="1" parent="1" source="fNvGgida7WoPPl0siBiy-4" target="fNvGgida7WoPPl0siBiy-6">
          <mxGeometry relative="1" as="geometry" />
        </mxCell>
        <mxCell id="fNvGgida7WoPPl0siBiy-4" value="Kuvame kasutajale tekst&amp;nbsp;&lt;div&gt;&quot;0 - headaega&amp;nbsp;&lt;/div&gt;&lt;div&gt;1 -tahan telefoni parandada&quot;&lt;/div&gt;" style="shape=parallelogram;perimeter=parallelogramPerimeter;whiteSpace=wrap;html=1;fixedSize=1;" vertex="1" parent="1">
          <mxGeometry x="440" y="520" width="220" height="60" as="geometry" />
        </mxCell>
        <mxCell id="fNvGgida7WoPPl0siBiy-13" value="" style="edgeStyle=orthogonalEdgeStyle;rounded=0;orthogonalLoop=1;jettySize=auto;html=1;" edge="1" parent="1" source="fNvGgida7WoPPl0siBiy-6" target="fNvGgida7WoPPl0siBiy-12">
          <mxGeometry relative="1" as="geometry" />
        </mxCell>
        <mxCell id="fNvGgida7WoPPl0siBiy-6" value="Tekitame tsükklimuutuja &quot;kasutajavalik&quot; kuhu tuleb käsurealt kas 0 või1" style="shape=parallelogram;perimeter=parallelogramPerimeter;whiteSpace=wrap;html=1;fixedSize=1;" vertex="1" parent="1">
          <mxGeometry x="440" y="650" width="220" height="60" as="geometry" />
        </mxCell>
        <mxCell id="fNvGgida7WoPPl0siBiy-16" value="JAH" style="edgeStyle=orthogonalEdgeStyle;rounded=0;orthogonalLoop=1;jettySize=auto;html=1;" edge="1" parent="1" source="fNvGgida7WoPPl0siBiy-10" target="fNvGgida7WoPPl0siBiy-15">
          <mxGeometry relative="1" as="geometry" />
        </mxCell>
        <mxCell id="fNvGgida7WoPPl0siBiy-19" value="EI" style="edgeStyle=orthogonalEdgeStyle;rounded=0;orthogonalLoop=1;jettySize=auto;html=1;exitX=0;exitY=0.5;exitDx=0;exitDy=0;entryX=0.5;entryY=0;entryDx=0;entryDy=0;" edge="1" parent="1" source="fNvGgida7WoPPl0siBiy-10" target="fNvGgida7WoPPl0siBiy-18">
          <mxGeometry relative="1" as="geometry">
            <Array as="points">
              <mxPoint x="430" y="970" />
              <mxPoint x="430" y="1200" />
              <mxPoint x="550" y="1200" />
            </Array>
          </mxGeometry>
        </mxCell>
        <mxCell id="fNvGgida7WoPPl0siBiy-10" value="Kas sisestatud väärtus on&amp;nbsp;&lt;div&gt;väiksem kui 0 ja suurem kui 1&amp;nbsp;&lt;/div&gt;" style="rhombus;whiteSpace=wrap;html=1;" vertex="1" parent="1">
          <mxGeometry x="450" y="930" width="200" height="80" as="geometry" />
        </mxCell>
        <mxCell id="fNvGgida7WoPPl0siBiy-14" value="" style="edgeStyle=orthogonalEdgeStyle;rounded=0;orthogonalLoop=1;jettySize=auto;html=1;" edge="1" parent="1" source="fNvGgida7WoPPl0siBiy-12" target="fNvGgida7WoPPl0siBiy-10">
          <mxGeometry relative="1" as="geometry" />
        </mxCell>
        <mxCell id="fNvGgida7WoPPl0siBiy-12" value="Ootame kasutajalt sisendit" style="whiteSpace=wrap;html=1;" vertex="1" parent="1">
          <mxGeometry x="490" y="790" width="120" height="60" as="geometry" />
        </mxCell>
        <mxCell id="fNvGgida7WoPPl0siBiy-17" style="edgeStyle=orthogonalEdgeStyle;rounded=0;orthogonalLoop=1;jettySize=auto;html=1;exitX=0.5;exitY=1;exitDx=0;exitDy=0;entryX=1;entryY=0.5;entryDx=0;entryDy=0;" edge="1" parent="1" source="fNvGgida7WoPPl0siBiy-15" target="fNvGgida7WoPPl0siBiy-12">
          <mxGeometry relative="1" as="geometry">
            <Array as="points">
              <mxPoint x="550" y="1170" />
              <mxPoint x="690" y="1170" />
              <mxPoint x="690" y="820" />
            </Array>
          </mxGeometry>
        </mxCell>
        <mxCell id="fNvGgida7WoPPl0siBiy-15" value="Kuvame kasutajale tekst&amp;nbsp;&lt;div&gt;&quot;Palun tee oma valik, kirjutades vastav arv,&quot;&lt;/div&gt;" style="shape=parallelogram;perimeter=parallelogramPerimeter;whiteSpace=wrap;html=1;fixedSize=1;" vertex="1" parent="1">
          <mxGeometry x="440" y="1090" width="220" height="60" as="geometry" />
        </mxCell>
        <mxCell id="fNvGgida7WoPPl0siBiy-21" value="JAH" style="edgeStyle=orthogonalEdgeStyle;rounded=0;orthogonalLoop=1;jettySize=auto;html=1;" edge="1" parent="1" source="fNvGgida7WoPPl0siBiy-18" target="fNvGgida7WoPPl0siBiy-20">
          <mxGeometry relative="1" as="geometry" />
        </mxCell>
        <mxCell id="fNvGgida7WoPPl0siBiy-24" value="EI" style="edgeStyle=orthogonalEdgeStyle;rounded=0;orthogonalLoop=1;jettySize=auto;html=1;exitX=0;exitY=0.5;exitDx=0;exitDy=0;entryX=0;entryY=0.5;entryDx=0;entryDy=0;" edge="1" parent="1" source="fNvGgida7WoPPl0siBiy-18" target="fNvGgida7WoPPl0siBiy-22">
          <mxGeometry relative="1" as="geometry">
            <Array as="points">
              <mxPoint x="380" y="1280" />
              <mxPoint x="380" y="1570" />
            </Array>
          </mxGeometry>
        </mxCell>
        <mxCell id="fNvGgida7WoPPl0siBiy-18" value="Kas sisestatud väärtus on 0?" style="rhombus;whiteSpace=wrap;html=1;" vertex="1" parent="1">
          <mxGeometry x="460" y="1240" width="180" height="80" as="geometry" />
        </mxCell>
        <mxCell id="fNvGgida7WoPPl0siBiy-64" style="edgeStyle=orthogonalEdgeStyle;rounded=0;orthogonalLoop=1;jettySize=auto;html=1;exitX=0.5;exitY=1;exitDx=0;exitDy=0;" edge="1" parent="1" source="fNvGgida7WoPPl0siBiy-20" target="fNvGgida7WoPPl0siBiy-59">
          <mxGeometry relative="1" as="geometry">
            <Array as="points">
              <mxPoint x="550" y="1490" />
              <mxPoint x="960" y="1490" />
              <mxPoint x="960" y="2870" />
              <mxPoint x="550" y="2870" />
            </Array>
          </mxGeometry>
        </mxCell>
        <mxCell id="fNvGgida7WoPPl0siBiy-20" value="Kuva kasutajale tekst &quot;Headaega, tulge jälle&quot;" style="shape=parallelogram;perimeter=parallelogramPerimeter;whiteSpace=wrap;html=1;fixedSize=1;" vertex="1" parent="1">
          <mxGeometry x="470" y="1410" width="160" height="60" as="geometry" />
        </mxCell>
        <mxCell id="fNvGgida7WoPPl0siBiy-26" value="" style="edgeStyle=orthogonalEdgeStyle;rounded=0;orthogonalLoop=1;jettySize=auto;html=1;" edge="1" parent="1" source="fNvGgida7WoPPl0siBiy-22" target="fNvGgida7WoPPl0siBiy-25">
          <mxGeometry relative="1" as="geometry" />
        </mxCell>
        <mxCell id="fNvGgida7WoPPl0siBiy-22" value="Kuva kasutajale tekst&amp;nbsp;&quot;Palun sisesta oma telefonimudel, mida parandada soovid:&quot;" style="shape=parallelogram;perimeter=parallelogramPerimeter;whiteSpace=wrap;html=1;fixedSize=1;" vertex="1" parent="1">
          <mxGeometry x="420" y="1540" width="260" height="60" as="geometry" />
        </mxCell>
        <mxCell id="fNvGgida7WoPPl0siBiy-28" value="" style="edgeStyle=orthogonalEdgeStyle;rounded=0;orthogonalLoop=1;jettySize=auto;html=1;" edge="1" parent="1" source="fNvGgida7WoPPl0siBiy-25" target="fNvGgida7WoPPl0siBiy-27">
          <mxGeometry relative="1" as="geometry" />
        </mxCell>
        <mxCell id="fNvGgida7WoPPl0siBiy-25" value="Kuva kasutajale tekst&amp;nbsp;&lt;div&gt;&quot;1-iphone&lt;div&gt;2-Xiaomi&lt;/div&gt;&lt;div&gt;3-Huawei&lt;/div&gt;&lt;div&gt;4-Samsung&quot;&lt;/div&gt;&lt;/div&gt;" style="shape=parallelogram;perimeter=parallelogramPerimeter;whiteSpace=wrap;html=1;fixedSize=1;" vertex="1" parent="1">
          <mxGeometry x="420" y="1670" width="260" height="80" as="geometry" />
        </mxCell>
        <mxCell id="fNvGgida7WoPPl0siBiy-32" value="" style="edgeStyle=orthogonalEdgeStyle;rounded=0;orthogonalLoop=1;jettySize=auto;html=1;" edge="1" parent="1" source="fNvGgida7WoPPl0siBiy-27" target="fNvGgida7WoPPl0siBiy-29">
          <mxGeometry relative="1" as="geometry" />
        </mxCell>
        <mxCell id="fNvGgida7WoPPl0siBiy-27" value="Tekitame tsükklimuutuja &quot;kasutajatelefon&quot; kuhu tuleb käsurealt väärtus" style="shape=parallelogram;perimeter=parallelogramPerimeter;whiteSpace=wrap;html=1;fixedSize=1;" vertex="1" parent="1">
          <mxGeometry x="440" y="1830" width="220" height="60" as="geometry" />
        </mxCell>
        <mxCell id="fNvGgida7WoPPl0siBiy-33" value="" style="edgeStyle=orthogonalEdgeStyle;rounded=0;orthogonalLoop=1;jettySize=auto;html=1;" edge="1" parent="1" source="fNvGgida7WoPPl0siBiy-29" target="fNvGgida7WoPPl0siBiy-30">
          <mxGeometry relative="1" as="geometry" />
        </mxCell>
        <mxCell id="fNvGgida7WoPPl0siBiy-29" value="Ootame kasutajalt sisendit" style="whiteSpace=wrap;html=1;" vertex="1" parent="1">
          <mxGeometry x="490" y="1950" width="120" height="60" as="geometry" />
        </mxCell>
        <mxCell id="fNvGgida7WoPPl0siBiy-34" value="JAH" style="edgeStyle=orthogonalEdgeStyle;rounded=0;orthogonalLoop=1;jettySize=auto;html=1;" edge="1" parent="1" source="fNvGgida7WoPPl0siBiy-30" target="fNvGgida7WoPPl0siBiy-31">
          <mxGeometry relative="1" as="geometry" />
        </mxCell>
        <mxCell id="fNvGgida7WoPPl0siBiy-55" style="edgeStyle=orthogonalEdgeStyle;rounded=0;orthogonalLoop=1;jettySize=auto;html=1;exitX=0;exitY=0.5;exitDx=0;exitDy=0;entryX=0;entryY=0.5;entryDx=0;entryDy=0;" edge="1" parent="1" source="fNvGgida7WoPPl0siBiy-30" target="fNvGgida7WoPPl0siBiy-37">
          <mxGeometry relative="1" as="geometry" />
        </mxCell>
        <mxCell id="fNvGgida7WoPPl0siBiy-56" style="edgeStyle=orthogonalEdgeStyle;rounded=0;orthogonalLoop=1;jettySize=auto;html=1;exitX=0;exitY=0.5;exitDx=0;exitDy=0;entryX=0;entryY=0.5;entryDx=0;entryDy=0;" edge="1" parent="1" source="fNvGgida7WoPPl0siBiy-30" target="fNvGgida7WoPPl0siBiy-44">
          <mxGeometry relative="1" as="geometry" />
        </mxCell>
        <mxCell id="fNvGgida7WoPPl0siBiy-57" style="edgeStyle=orthogonalEdgeStyle;rounded=0;orthogonalLoop=1;jettySize=auto;html=1;exitX=0;exitY=0.5;exitDx=0;exitDy=0;entryX=0;entryY=0.5;entryDx=0;entryDy=0;" edge="1" parent="1" source="fNvGgida7WoPPl0siBiy-30" target="fNvGgida7WoPPl0siBiy-50">
          <mxGeometry relative="1" as="geometry" />
        </mxCell>
        <mxCell id="fNvGgida7WoPPl0siBiy-58" style="edgeStyle=orthogonalEdgeStyle;rounded=0;orthogonalLoop=1;jettySize=auto;html=1;exitX=0;exitY=0.5;exitDx=0;exitDy=0;entryX=0;entryY=0.5;entryDx=0;entryDy=0;" edge="1" parent="1" source="fNvGgida7WoPPl0siBiy-30" target="fNvGgida7WoPPl0siBiy-53">
          <mxGeometry relative="1" as="geometry" />
        </mxCell>
        <mxCell id="fNvGgida7WoPPl0siBiy-30" value="Kas sisestatud väärtus on&amp;nbsp;&lt;div&gt;väiksem kui 1 ja suurem kui 4&lt;/div&gt;" style="rhombus;whiteSpace=wrap;html=1;" vertex="1" parent="1">
          <mxGeometry x="450" y="2070" width="200" height="80" as="geometry" />
        </mxCell>
        <mxCell id="fNvGgida7WoPPl0siBiy-35" style="edgeStyle=orthogonalEdgeStyle;rounded=0;orthogonalLoop=1;jettySize=auto;html=1;exitX=0.5;exitY=1;exitDx=0;exitDy=0;entryX=1;entryY=0.5;entryDx=0;entryDy=0;" edge="1" parent="1" source="fNvGgida7WoPPl0siBiy-31" target="fNvGgida7WoPPl0siBiy-29">
          <mxGeometry relative="1" as="geometry">
            <Array as="points">
              <mxPoint x="550" y="2290" />
              <mxPoint x="690" y="2290" />
              <mxPoint x="690" y="1980" />
            </Array>
          </mxGeometry>
        </mxCell>
        <mxCell id="fNvGgida7WoPPl0siBiy-31" value="Kuvame kasutajale tekst&amp;nbsp;&lt;div&gt;&quot;Palun tee oma valik, kirjutades vastav arv,&quot;&lt;/div&gt;" style="shape=parallelogram;perimeter=parallelogramPerimeter;whiteSpace=wrap;html=1;fixedSize=1;" vertex="1" parent="1">
          <mxGeometry x="440" y="2210" width="220" height="60" as="geometry" />
        </mxCell>
        <mxCell id="fNvGgida7WoPPl0siBiy-42" value="JAH" style="edgeStyle=orthogonalEdgeStyle;rounded=0;orthogonalLoop=1;jettySize=auto;html=1;" edge="1" parent="1" source="fNvGgida7WoPPl0siBiy-37" target="fNvGgida7WoPPl0siBiy-41">
          <mxGeometry relative="1" as="geometry" />
        </mxCell>
        <mxCell id="fNvGgida7WoPPl0siBiy-37" value="Kas sisestatud väärtus on&lt;span style=&quot;background-color: transparent; color: light-dark(rgb(0, 0, 0), rgb(255, 255, 255));&quot;&gt;&amp;nbsp;1&lt;/span&gt;" style="rhombus;whiteSpace=wrap;html=1;" vertex="1" parent="1">
          <mxGeometry x="450" y="2350" width="200" height="80" as="geometry" />
        </mxCell>
        <mxCell id="fNvGgida7WoPPl0siBiy-63" style="edgeStyle=orthogonalEdgeStyle;rounded=0;orthogonalLoop=1;jettySize=auto;html=1;exitX=1;exitY=0.5;exitDx=0;exitDy=0;entryX=0.5;entryY=0;entryDx=0;entryDy=0;" edge="1" parent="1" source="fNvGgida7WoPPl0siBiy-41" target="fNvGgida7WoPPl0siBiy-59">
          <mxGeometry relative="1" as="geometry">
            <Array as="points">
              <mxPoint x="960" y="2390" />
              <mxPoint x="960" y="2870" />
              <mxPoint x="550" y="2870" />
            </Array>
          </mxGeometry>
        </mxCell>
        <mxCell id="fNvGgida7WoPPl0siBiy-41" value="Kuvame kasutajale tekst&amp;nbsp;&lt;div&gt;&quot;Aitäh, oma iPhone saad tagasi 1 nädala pärast&quot;&lt;/div&gt;" style="shape=parallelogram;perimeter=parallelogramPerimeter;whiteSpace=wrap;html=1;fixedSize=1;" vertex="1" parent="1">
          <mxGeometry x="730" y="2360" width="220" height="60" as="geometry" />
        </mxCell>
        <mxCell id="fNvGgida7WoPPl0siBiy-43" value="JAH" style="edgeStyle=orthogonalEdgeStyle;rounded=0;orthogonalLoop=1;jettySize=auto;html=1;" edge="1" parent="1" source="fNvGgida7WoPPl0siBiy-44" target="fNvGgida7WoPPl0siBiy-45">
          <mxGeometry relative="1" as="geometry" />
        </mxCell>
        <mxCell id="fNvGgida7WoPPl0siBiy-44" value="Kas sisestatud väärtus on&lt;span style=&quot;background-color: transparent; color: light-dark(rgb(0, 0, 0), rgb(255, 255, 255));&quot;&gt;&amp;nbsp;2&lt;/span&gt;" style="rhombus;whiteSpace=wrap;html=1;" vertex="1" parent="1">
          <mxGeometry x="450" y="2490" width="200" height="80" as="geometry" />
        </mxCell>
        <mxCell id="fNvGgida7WoPPl0siBiy-62" style="edgeStyle=orthogonalEdgeStyle;rounded=0;orthogonalLoop=1;jettySize=auto;html=1;exitX=1;exitY=0.5;exitDx=0;exitDy=0;entryX=0.5;entryY=0;entryDx=0;entryDy=0;" edge="1" parent="1" source="fNvGgida7WoPPl0siBiy-45" target="fNvGgida7WoPPl0siBiy-59">
          <mxGeometry relative="1" as="geometry">
            <Array as="points">
              <mxPoint x="960" y="2530" />
              <mxPoint x="960" y="2870" />
              <mxPoint x="550" y="2870" />
            </Array>
          </mxGeometry>
        </mxCell>
        <mxCell id="fNvGgida7WoPPl0siBiy-45" value="Kuvame kasutajale tekst&amp;nbsp;&lt;div&gt;&quot;Aitäh, oma Xiaomi saad tagasi 2 kuu pärast&quot;&lt;/div&gt;" style="shape=parallelogram;perimeter=parallelogramPerimeter;whiteSpace=wrap;html=1;fixedSize=1;" vertex="1" parent="1">
          <mxGeometry x="730" y="2500" width="220" height="60" as="geometry" />
        </mxCell>
        <mxCell id="fNvGgida7WoPPl0siBiy-49" value="JAH" style="edgeStyle=orthogonalEdgeStyle;rounded=0;orthogonalLoop=1;jettySize=auto;html=1;" edge="1" parent="1" source="fNvGgida7WoPPl0siBiy-50" target="fNvGgida7WoPPl0siBiy-51">
          <mxGeometry relative="1" as="geometry" />
        </mxCell>
        <mxCell id="fNvGgida7WoPPl0siBiy-50" value="Kas sisestatud väärtus on&lt;span style=&quot;background-color: transparent; color: light-dark(rgb(0, 0, 0), rgb(255, 255, 255));&quot;&gt;&amp;nbsp;3&lt;/span&gt;" style="rhombus;whiteSpace=wrap;html=1;" vertex="1" parent="1">
          <mxGeometry x="450" y="2620" width="200" height="80" as="geometry" />
        </mxCell>
        <mxCell id="fNvGgida7WoPPl0siBiy-61" style="edgeStyle=orthogonalEdgeStyle;rounded=0;orthogonalLoop=1;jettySize=auto;html=1;exitX=1;exitY=0.5;exitDx=0;exitDy=0;entryX=0.5;entryY=0;entryDx=0;entryDy=0;" edge="1" parent="1" source="fNvGgida7WoPPl0siBiy-51" target="fNvGgida7WoPPl0siBiy-59">
          <mxGeometry relative="1" as="geometry">
            <Array as="points">
              <mxPoint x="960" y="2660" />
              <mxPoint x="960" y="2870" />
              <mxPoint x="550" y="2870" />
            </Array>
          </mxGeometry>
        </mxCell>
        <mxCell id="fNvGgida7WoPPl0siBiy-51" value="Kuvame kasutajale tekst&amp;nbsp;&lt;div&gt;&quot;Kahjuks me huaweid ei teeninda&quot;&lt;/div&gt;" style="shape=parallelogram;perimeter=parallelogramPerimeter;whiteSpace=wrap;html=1;fixedSize=1;" vertex="1" parent="1">
          <mxGeometry x="730" y="2630" width="220" height="60" as="geometry" />
        </mxCell>
        <mxCell id="fNvGgida7WoPPl0siBiy-52" value="JAH" style="edgeStyle=orthogonalEdgeStyle;rounded=0;orthogonalLoop=1;jettySize=auto;html=1;" edge="1" parent="1" source="fNvGgida7WoPPl0siBiy-53" target="fNvGgida7WoPPl0siBiy-54">
          <mxGeometry relative="1" as="geometry" />
        </mxCell>
        <mxCell id="fNvGgida7WoPPl0siBiy-53" value="Kas sisestatud väärtus on&lt;span style=&quot;background-color: transparent; color: light-dark(rgb(0, 0, 0), rgb(255, 255, 255));&quot;&gt;&amp;nbsp;4&lt;/span&gt;" style="rhombus;whiteSpace=wrap;html=1;" vertex="1" parent="1">
          <mxGeometry x="450" y="2750" width="200" height="80" as="geometry" />
        </mxCell>
        <mxCell id="fNvGgida7WoPPl0siBiy-60" style="edgeStyle=orthogonalEdgeStyle;rounded=0;orthogonalLoop=1;jettySize=auto;html=1;exitX=1;exitY=0.5;exitDx=0;exitDy=0;" edge="1" parent="1" source="fNvGgida7WoPPl0siBiy-54" target="fNvGgida7WoPPl0siBiy-59">
          <mxGeometry relative="1" as="geometry">
            <Array as="points">
              <mxPoint x="960" y="2790" />
              <mxPoint x="960" y="2870" />
              <mxPoint x="550" y="2870" />
            </Array>
          </mxGeometry>
        </mxCell>
        <mxCell id="fNvGgida7WoPPl0siBiy-54" value="Kuvame kasutajale tekst&amp;nbsp;&lt;div&gt;&quot;Aitäh, oma Samsungi saad tagasi 2 päeva pärast&quot;&lt;/div&gt;" style="shape=parallelogram;perimeter=parallelogramPerimeter;whiteSpace=wrap;html=1;fixedSize=1;" vertex="1" parent="1">
          <mxGeometry x="730" y="2760" width="220" height="60" as="geometry" />
        </mxCell>
        <mxCell id="fNvGgida7WoPPl0siBiy-59" value="Lõpp" style="ellipse;whiteSpace=wrap;html=1;" vertex="1" parent="1">
          <mxGeometry x="490" y="2910" width="120" height="80" as="geometry" />
        </mxCell>
      </root>
    </mxGraphModel>
  </diagram>
</mxfile>
